<?xml version="1.0" encoding="UTF-8" standalone="no"?>
<!-- Generator: Adobe Illustrator 16.0.0, SVG Export Plug-In . SVG Version: 6.00 Build 0)  -->

<svg
   xmlns:dc="http://purl.org/dc/elements/1.1/"
   xmlns:cc="http://creativecommons.org/ns#"
   xmlns:rdf="http://www.w3.org/1999/02/22-rdf-syntax-ns#"
   xmlns:svg="http://www.w3.org/2000/svg"
   xmlns="http://www.w3.org/2000/svg"
   xmlns:sodipodi="http://sodipodi.sourceforge.net/DTD/sodipodi-0.dtd"
   xmlns:inkscape="http://www.inkscape.org/namespaces/inkscape"
   version="1.1"
   id="Layer_1"
   x="0px"
   y="0px"
   width="512px"
   height="512px"
   viewBox="0 0 512 512"
   enable-background="new 0 0 512 512"
   xml:space="preserve"
   inkscape:version="0.91 r13725"
   sodipodi:docname="camera.svg"><metadata
     id="metadata3395"><rdf:RDF><cc:Work
         rdf:about=""><dc:format>image/svg+xml</dc:format><dc:type
           rdf:resource="http://purl.org/dc/dcmitype/StillImage" /></cc:Work></rdf:RDF></metadata><defs
     id="defs3393" /><sodipodi:namedview
     pagecolor="#ffffff"
     bordercolor="#666666"
     borderopacity="1"
     objecttolerance="10"
     gridtolerance="10"
     guidetolerance="10"
     inkscape:pageopacity="0"
     inkscape:pageshadow="2"
     inkscape:window-width="859"
     inkscape:window-height="642"
     id="namedview3391"
     showgrid="false"
     inkscape:zoom="0.86508119"
     inkscape:cx="256"
     inkscape:cy="256"
     inkscape:window-x="0"
     inkscape:window-y="0"
     inkscape:window-maximized="0"
     inkscape:current-layer="g3385" /><g
     id="g3385"><circle
       cx="255.811"
       cy="285.309"
       r="75.217"
       id="circle3387"
       style="fill:#ffffff" /><path
       d="M477,137H352.718L349,108c0-16.568-13.432-30-30-30H191c-16.568,0-30,13.432-30,30l-3.718,29H34   c-11.046,0-20,8.454-20,19.5v258c0,11.046,8.954,20.5,20,20.5h443c11.046,0,20-9.454,20-20.5v-258C497,145.454,488.046,137,477,137   z M255.595,408.562c-67.928,0-122.994-55.066-122.994-122.993c0-67.928,55.066-122.994,122.994-122.994   c67.928,0,122.994,55.066,122.994,122.994C378.589,353.495,323.523,408.562,255.595,408.562z M474,190H369v-31h105V190z"
       id="path3389"
       style="fill:#ffffff" /></g></svg>